<svg version="1.1" id="Layer_1" xmlns="http://www.w3.org/2000/svg" xmlns:xlink="http://www.w3.org/1999/xlink" x="0px" y="0px"
	 width="100%" viewBox="0 0 1024 1024" enable-background="new 0 0 1024 1024" xml:space="preserve">
<path fill="#000000" opacity="1.000000" stroke="none" 
	d="
M672.220886,581.234131 
	C639.999023,611.221313 606.382568,639.078979 573.572021,667.855774 
	C554.792969,684.326111 536.600464,701.477356 518.473389,718.669556 
	C514.447021,722.488159 512.438660,721.677307 508.954193,718.297974 
	C466.343079,676.973450 420.198364,639.603210 376.144470,599.888123 
	C353.731842,579.682922 331.457703,559.367065 312.356537,535.864197 
	C292.065155,510.896790 276.992432,483.189026 271.288727,451.381073 
	C264.019867,410.844666 271.379456,374.010803 303.429871,345.232147 
	C319.053253,331.203644 337.943451,323.530884 358.450439,319.647827 
	C374.173431,316.670654 390.059387,316.730743 405.615692,319.596954 
	C427.740692,323.673370 447.412506,333.663727 465.096008,347.640198 
	C482.100433,361.079987 496.478516,376.929413 509.152069,394.419189 
	C510.203522,395.870239 510.907898,397.670837 512.845337,398.473663 
	C515.441284,397.980591 516.316833,395.576050 517.631836,393.779907 
	C535.246948,369.720062 555.884644,348.913635 582.018127,334.072540 
	C601.069153,323.253540 621.577148,318.046783 643.525513,317.493103 
	C671.729675,316.781555 697.113647,324.618408 719.452332,341.600189 
	C739.455872,356.806854 750.303406,377.731995 755.404236,402.056824 
	C758.000305,414.436432 758.402893,427.030060 757.160461,439.311218 
	C755.421082,456.505066 750.505066,473.169006 743.588806,489.169739 
	C733.333801,512.894287 718.006836,533.092163 700.784973,552.046936 
	C691.702209,562.043579 682.227661,571.648987 672.220886,581.234131 
M602.292053,517.211670 
	C592.148438,517.617920 581.971375,517.644043 571.870178,518.532227 
	C560.720337,519.512573 549.546082,518.858826 538.422791,519.706543 
	C532.694092,520.143127 527.395264,519.932190 521.924316,517.423401 
	C512.082581,512.910339 503.638733,519.557434 504.466553,530.266052 
	C505.337738,541.535095 505.965973,552.833618 506.293091,564.131042 
	C506.640106,576.113586 507.799225,588.066833 507.490784,600.078003 
	C507.428406,602.508179 508.136688,605.034607 508.882080,607.392639 
	C510.282104,611.821838 513.085693,615.047241 517.967896,615.563782 
	C522.695190,616.063904 526.505066,614.181580 528.856445,610.006836 
	C530.143372,607.721924 531.693787,606.719910 534.391663,606.681335 
	C552.708923,606.419434 571.025757,606.070312 589.337830,605.568298 
	C592.356384,605.485596 594.108459,606.325317 595.774048,608.936829 
	C598.220154,612.772156 601.998840,615.076416 606.773560,614.260559 
	C612.041077,613.360474 615.471924,610.091736 616.525940,604.816895 
	C617.239075,601.247986 617.413574,597.573853 617.890015,593.954895 
	C620.597534,573.388916 622.299011,552.702148 625.526184,532.193787 
	C626.784729,524.196228 622.555176,518.897949 614.620972,516.870361 
	C610.747192,515.880432 607.015564,516.714966 602.292053,517.211670 
M415.509430,556.183533 
	C418.879974,555.891785 421.371948,553.830322 423.756012,551.790405 
	C430.969421,545.618164 438.046906,539.287292 445.216461,533.063293 
	C446.512909,531.937866 447.453613,530.067871 449.894928,530.477844 
	C450.036377,531.267517 450.293640,532.052124 450.301025,532.839111 
	C450.519012,555.992859 450.748932,579.146790 450.876770,602.301147 
	C450.901123,606.711792 451.664246,610.580994 455.879700,612.929565 
	C464.686157,617.835754 472.717163,612.975708 472.574921,602.335632 
	C472.245148,577.672791 473.843445,553.047974 473.739594,528.393311 
	C473.731934,526.579834 473.041260,524.388794 475.080872,523.076355 
	C477.200134,523.511658 477.643524,525.321716 478.589661,526.611267 
	C480.790741,529.611267 483.311279,532.224304 486.805725,533.698242 
	C491.027161,535.478821 495.014343,535.240906 498.248077,531.732361 
	C501.388855,528.324707 502.991364,524.367615 500.602753,519.873291 
	C496.702850,512.535278 490.732635,507.557861 483.077606,504.272522 
	C479.902344,502.909790 477.057800,505.517700 474.151733,504.426605 
	C473.629852,501.977234 475.273529,500.802948 476.323151,499.378418 
	C483.846100,489.168732 490.796265,478.609619 495.965027,466.978455 
	C498.034424,462.321808 498.914062,457.561707 494.911102,453.485779 
	C490.790924,449.290436 485.717346,448.333221 480.197723,450.368500 
	C473.412231,452.870514 466.330627,453.700653 459.202606,454.390503 
	C447.269348,455.545410 435.311218,456.123749 423.327881,456.481934 
	C416.449188,456.687531 411.918610,461.910950 412.409790,468.222534 
	C412.891907,474.418243 417.800476,478.496033 424.532959,477.828430 
	C436.265747,476.664978 447.971863,475.234009 459.692261,473.943054 
	C461.430267,473.751587 463.284912,473.097839 465.393951,475.294312 
	C461.990448,480.400085 458.582092,485.646973 455.040253,490.802216 
	C442.840790,508.559021 427.057190,522.863281 410.825592,536.759521 
	C402.161163,544.177429 403.935760,552.314514 415.509430,556.183533 
M606.860474,499.120972 
	C609.943176,486.689117 610.593933,473.905945 612.061768,461.256653 
	C612.563171,456.935089 609.882263,453.382660 605.586914,451.503906 
	C601.907715,449.894592 597.966553,449.837524 594.292725,450.597687 
	C583.917725,452.744385 573.462463,452.389252 563.003174,452.375153 
	C550.871704,452.358826 538.754150,452.370911 526.623047,451.522369 
	C517.657715,450.895264 513.981445,455.988983 515.104980,464.968628 
	C516.442017,475.654053 517.497437,486.387085 518.254333,497.129120 
	C518.926086,506.662323 524.565369,511.345306 533.957642,508.788239 
	C541.896545,506.626831 549.854187,505.567535 558.049316,505.630463 
	C569.861755,505.721222 581.676025,505.662842 593.488892,505.579498 
	C598.622803,505.543274 603.478760,504.664734 606.860474,499.120972 
M619.681213,418.960480 
	C617.154358,415.536621 613.559143,414.506775 609.570190,414.728271 
	C594.963318,415.539337 580.355347,416.212555 565.722046,416.371948 
	C550.922119,416.533173 536.112671,415.908417 521.322083,416.893768 
	C512.986877,417.449066 509.058044,420.753143 509.319397,427.041473 
	C509.577362,433.247681 515.028931,437.699127 522.530945,437.612823 
	C527.848145,437.551697 533.161377,437.105896 538.478210,437.064606 
	C562.099609,436.881073 585.722107,436.826111 609.343384,436.630493 
	C619.342896,436.547699 624.338562,428.521149 619.681213,418.960480 
M470.760529,413.744659 
	C466.957764,409.111572 463.139862,404.531494 457.316284,402.213806 
	C452.507355,400.299957 448.722351,402.348358 445.715118,405.602081 
	C442.903564,408.644165 442.489197,412.367645 445.079163,416.098541 
	C449.052795,421.822693 452.816895,427.693481 456.839539,433.382050 
	C461.175629,439.513794 466.832336,440.441986 473.149323,436.297729 
	C477.996948,433.117432 479.193420,427.105621 475.936066,421.308960 
	C474.559448,418.859222 472.797668,416.625916 470.760529,413.744659 
z"/>
<path fill="#000000" opacity="1.000000" stroke="none" 
	d="
M801.660400,271.278381 
	C831.643433,292.594482 847.242615,322.676758 856.264038,356.908539 
	C857.912354,363.163361 859.053955,369.550842 860.655823,375.819244 
	C861.329407,378.455261 861.005432,379.749512 858.050537,380.395325 
	C831.912292,386.108154 805.784851,391.874298 779.701721,397.832245 
	C775.939514,398.691650 775.356506,396.634552 774.801392,394.089691 
	C772.667175,384.305481 769.794250,374.746704 765.555969,365.671600 
	C751.250977,335.041779 726.286499,316.615387 694.776062,307.641113 
	C643.196411,292.950989 595.665527,302.853302 552.908691,335.137390 
	C538.997986,345.640839 527.251587,358.369812 516.967773,372.440582 
	C516.004700,373.758301 515.362488,375.404266 513.353210,376.046417 
	C510.112335,373.510712 508.264343,369.692596 505.690338,366.502991 
	C478.844543,333.236877 445.006348,311.162659 402.641052,303.783112 
	C369.222961,297.962067 336.494934,300.778015 306.169586,317.353027 
	C276.165253,333.752563 259.569366,359.798370 254.361923,393.258484 
	C247.514435,437.256775 260.289764,476.838013 282.411224,514.109924 
	C293.331024,532.508362 306.041534,549.600403 321.747040,564.298157 
	C322.185760,564.708740 322.460876,565.294128 322.736115,565.688843 
	C322.134827,566.673279 321.448639,566.636292 320.841553,566.412109 
	C291.753540,555.673279 262.871796,544.475891 236.912643,527.077026 
	C207.734344,507.520599 186.203751,482.002106 176.394699,447.751282 
	C170.252014,426.302551 168.734406,404.403198 170.508804,382.096161 
	C172.789978,353.417664 181.252380,327.074066 197.562637,303.327789 
	C214.874847,278.122772 238.697998,261.516205 267.008881,250.853485 
	C280.139923,245.907928 293.729156,242.679306 307.593323,240.880661 
	C312.525360,240.240829 313.695648,237.964005 313.669952,233.713120 
	C313.599518,222.048431 313.788452,210.380600 313.581512,198.719208 
	C313.510895,194.740707 314.911774,193.560867 318.783020,193.599503 
	C335.112579,193.762466 351.445770,193.767426 367.775146,193.594208 
	C371.874054,193.550735 373.312561,194.845078 373.231842,199.033142 
	C373.000610,211.026718 373.187592,223.027863 373.133606,235.025696 
	C373.117401,238.633698 374.416138,240.390182 378.332916,240.709198 
	C415.135834,243.706741 448.329895,255.925247 476.920105,279.733002 
	C490.444031,290.994690 502.108093,303.970428 512.495789,318.135956 
	C513.361755,319.316864 513.991455,320.782471 515.895874,321.326141 
	C518.622742,319.793091 519.926758,316.774689 521.825439,314.341797 
	C550.760803,277.263824 587.627258,252.648941 633.960632,242.923126 
	C638.341553,242.003525 642.799744,241.171707 647.253723,240.957916 
	C651.872070,240.736221 652.688416,238.218933 652.666138,234.411667 
	C652.598816,222.913589 652.920471,211.405548 652.528687,199.920547 
	C652.350342,194.690430 654.169067,193.477036 659.072876,193.562607 
	C674.899353,193.838791 690.735168,193.790817 706.563843,193.589783 
	C710.798096,193.536011 712.083984,195.092636 711.991089,199.115143 
	C711.729492,210.439636 711.779297,221.770950 711.607971,233.098083 
	C711.514038,239.304535 712.256653,239.993820 718.452209,240.673691 
	C748.579224,243.979752 776.550964,253.242706 801.660400,271.278381 
z"/>
<path fill="#000000" opacity="1.000000" stroke="none" 
	d="
M607.358887,766.863403 
	C579.500549,757.055664 556.386292,741.122253 537.127441,718.190125 
	C559.325256,698.828552 581.205933,679.743591 603.386353,660.397156 
	C605.878052,663.659912 607.826172,666.332581 609.898438,668.905396 
	C627.899902,691.254761 651.390625,702.979675 679.825500,705.808472 
	C697.144043,707.531372 714.108093,706.626770 730.500732,700.806091 
	C758.638550,690.815063 775.405518,671.132874 778.694275,641.129211 
	C781.666504,614.013184 770.328491,593.405518 748.360962,578.096436 
	C739.156494,571.681824 729.094360,566.866028 718.928467,562.236084 
	C717.283325,561.486755 715.453613,561.025085 714.040527,559.315674 
	C719.526672,552.294067 725.065308,545.258850 730.546387,538.179016 
	C742.741455,522.427124 752.836304,505.404327 760.817993,487.169434 
	C762.551208,483.209839 764.253906,482.502350 768.307983,484.240814 
	C790.172424,493.616699 811.121521,504.515137 828.682739,520.848083 
	C850.830505,541.446716 863.535156,567.153809 868.481262,596.835022 
	C873.429504,626.528687 872.285950,655.879089 862.182983,684.404846 
	C847.570740,725.662720 818.265259,752.283447 777.713806,767.146423 
	C758.347778,774.244446 738.133667,777.265808 717.618896,778.219482 
	C713.389832,778.416016 712.235413,779.916565 712.282227,783.910645 
	C712.451965,798.406982 712.358948,812.906677 712.321106,827.404907 
	C712.316467,829.195374 712.712036,831.062134 711.714294,832.857239 
	C709.528015,833.898682 707.165771,833.339722 704.886292,833.347778 
	C689.554871,833.401794 674.218567,833.166382 658.894165,833.499756 
	C653.705444,833.612610 652.430054,831.916809 652.537415,826.950989 
	C652.850830,812.459473 652.524719,797.954956 652.724426,783.459412 
	C652.780823,779.365540 651.537109,777.585327 647.334595,776.893799 
	C633.877808,774.679504 620.574829,771.708313 607.358887,766.863403 
z"/>
<path fill="#000000" opacity="1.000000" stroke="none" 
	d="
M427.338013,761.471863 
	C411.212738,768.483215 394.828613,773.370850 377.885193,776.269836 
	C374.266571,776.888977 373.269623,778.507935 373.296509,781.921936 
	C373.415894,797.080139 373.218567,812.241516 373.420990,827.397949 
	C373.479248,831.759155 372.454102,833.565125 367.637329,833.481079 
	C351.483551,833.199036 335.319580,833.227112 319.164581,833.472046 
	C314.652527,833.540466 313.510986,831.963318 313.571930,827.698608 
	C313.783722,812.875671 313.544678,798.046570 313.715271,783.222595 
	C313.762451,779.120300 312.679810,777.673706 308.221344,777.164062 
	C281.169891,774.072266 255.412399,766.775269 232.174957,752.026428 
	C200.311279,731.802490 180.409775,702.744080 169.776627,666.983276 
	C167.415726,659.043335 165.932098,650.845276 163.933594,642.793518 
	C163.061295,639.279175 164.336929,637.501221 167.800018,636.785400 
	C194.948151,631.173889 222.096359,625.561584 249.216263,619.816040 
	C253.846329,618.835083 253.671127,622.305481 254.168930,624.771301 
	C256.487671,636.256836 260.089966,647.276733 265.646057,657.602600 
	C279.773621,683.858521 301.374847,698.841797 331.332489,701.911011 
	C344.529602,703.263062 357.250122,701.787781 369.672882,697.822510 
	C390.022736,691.326965 402.790344,676.912354 410.300079,657.356384 
	C411.120239,655.220642 411.450317,652.806519 413.760498,650.950073 
	C419.013550,655.431335 424.326385,659.914551 429.586029,664.459290 
	C447.608093,680.031677 465.573395,695.664490 483.080231,711.824585 
	C486.434509,714.920715 486.188232,716.756042 483.400726,719.853760 
	C467.592926,737.420593 449.222931,751.479980 427.338013,761.471863 
z"/>
<path fill="#000000" opacity="1.000000" stroke="none" 
	d="
M600.007568,539.462708 
	C600.669678,552.191345 600.671021,552.216858 588.716553,552.854858 
	C584.578125,553.075684 580.430725,553.124084 576.288147,553.272278 
	C573.800537,553.361206 572.572327,552.222961 572.691650,549.703491 
	C572.699463,549.538391 572.686951,549.371765 572.676270,549.206421 
	C571.881836,536.892944 572.031677,536.730469 584.383118,536.695740 
	C587.865601,536.685974 591.348267,536.677368 594.830566,536.699890 
	C596.848694,536.712891 598.883362,536.751770 600.007568,539.462708 
z"/>
<path fill="#000000" opacity="1.000000" stroke="none" 
	d="
M577.548279,587.388794 
	C573.613281,587.894836 572.615967,586.342896 572.582275,582.913208 
	C572.458557,570.314819 572.339844,570.240784 585.163269,569.955444 
	C589.214905,569.865295 593.367676,568.871887 597.431091,570.455872 
	C597.957886,575.185791 596.458435,579.502502 596.067383,583.919922 
	C595.841064,586.477051 593.941101,587.399536 591.430054,587.363892 
	C586.951050,587.300293 582.470215,587.371765 577.548279,587.388794 
z"/>
<path fill="#000000" opacity="1.000000" stroke="none" 
	d="
M528.684570,575.243042 
	C528.610229,572.293396 529.858887,571.106995 532.293091,571.072449 
	C537.937317,570.992554 543.581787,570.929688 549.225525,570.823303 
	C551.196533,570.786255 552.394226,571.428467 552.372681,573.642700 
	C552.327698,578.265991 552.359070,582.890015 552.359070,588.758240 
	C545.063660,588.758240 538.168335,588.808655 531.274536,588.729309 
	C529.036804,588.703552 528.758789,586.932678 528.737061,585.173950 
	C528.698181,582.019775 528.693604,578.865112 528.684570,575.243042 
z"/>
<path fill="#000000" opacity="1.000000" stroke="none" 
	d="
M545.877197,554.282471 
	C540.911926,554.299500 536.427856,554.231323 531.948730,554.349487 
	C528.975281,554.427917 527.948303,553.096558 527.724915,550.205811 
	C526.765442,537.792053 526.693909,537.797424 538.892334,537.673889 
	C539.722290,537.665466 540.552307,537.664856 541.382324,537.659790 
	C552.415283,537.593140 554.654297,540.466309 552.302429,551.393799 
	C551.508179,555.083984 548.622559,553.908508 545.877197,554.282471 
z"/>
<path fill="#000000" opacity="1.000000" stroke="none" 
	d="
M578.768616,470.641846 
	C580.067871,470.630768 580.898499,470.626068 581.729004,470.611176 
	C587.655884,470.504852 587.842163,470.722076 586.962280,476.802826 
	C586.867188,477.459991 586.700439,478.107117 586.613159,478.765015 
	C585.362183,488.196777 585.362000,488.094269 575.497070,488.292755 
	C564.875061,488.506439 554.233093,487.771149 543.631165,488.908875 
	C540.814941,489.211090 539.700439,487.889496 539.676941,485.190063 
	C539.652405,482.371643 539.823242,479.482361 539.267761,476.754578 
	C538.502808,472.998535 539.631714,471.835632 543.442017,471.524567 
	C555.055298,470.576477 566.676819,470.740295 578.768616,470.641846 
z"/>
</svg>